<?xml version="1.0" standalone="no"?>
<!DOCTYPE svg PUBLIC "-//W3C//DTD SVG 20010904//EN"
 "http://www.w3.org/TR/2001/REC-SVG-20010904/DTD/svg10.dtd">
<svg version="1.0" xmlns="http://www.w3.org/2000/svg"
 width="500.000000pt" height="500.000000pt" viewBox="0 0 500.000000 500.000000"
 preserveAspectRatio="xMidYMid meet">
<metadata>
Created by potrace 1.14, written by Peter Selinger 2001-2017
</metadata>
<g transform="translate(0.000000,500.000000) scale(0.100000,-0.100000)"
fill="#000000" stroke="none">
<path d="M1930 3964 c-229 -33 -359 -78 -500 -174 -158 -107 -240 -251 -245
-425 -2 -86 10 -136 53 -223 32 -65 121 -172 187 -227 27 -22 54 -45 60 -51
44 -44 398 -261 695 -426 142 -79 393 -226 442 -259 197 -134 301 -351 265
-554 -12 -63 -60 -155 -109 -210 -79 -87 -241 -166 -388 -190 -25 -4 -54 -9
-65 -11 -26 -6 -324 -6 -350 0 -11 2 -45 7 -75 11 -155 20 -296 73 -419 160
-54 39 -70 45 -113 45 -89 0 -168 -61 -183 -141 l-7 -36 64 -16 c93 -25 267
-58 378 -72 25 -3 63 -7 85 -10 103 -13 257 -20 445 -20 222 1 288 7 425 41
160 40 341 137 420 226 83 94 135 264 128 422 -4 92 -33 203 -79 296 -101 208
-252 342 -587 524 -37 20 -82 45 -100 55 -18 10 -162 91 -322 180 -382 214
-405 228 -493 320 -170 179 -154 372 44 528 52 41 161 96 243 122 148 48 362
46 537 -5 141 -40 233 -94 349 -201 88 -82 141 -92 223 -42 40 24 77 96 59
117 -17 21 -149 85 -262 127 -116 44 -286 88 -400 105 -78 12 -355 21 -405 14z"/>
<path d="M3710 1449 c-115 -46 -136 -208 -36 -284 81 -62 197 -36 244 55 57
111 -17 241 -137 239 -25 0 -57 -5 -71 -10z"/>
</g>
</svg>
