<?xml version="1.0" standalone="no"?>
<!DOCTYPE svg PUBLIC "-//W3C//DTD SVG 20010904//EN"
 "http://www.w3.org/TR/2001/REC-SVG-20010904/DTD/svg10.dtd">
<svg version="1.0" xmlns="http://www.w3.org/2000/svg"
 width="500.000000pt" height="500.000000pt" viewBox="0 0 500.000000 500.000000"
 preserveAspectRatio="xMidYMid meet">
<metadata>
Created by potrace 1.14, written by Peter Selinger 2001-2017
</metadata>
<g transform="translate(0.000000,500.000000) scale(0.100000,-0.100000)"
fill="#000000" stroke="none">
<path d="M2077 3994 c-1 -1 -38 -4 -82 -7 -84 -6 -230 -32 -271 -47 -13 -6
-35 -12 -47 -14 -38 -8 -154 -55 -237 -96 -159 -80 -272 -162 -401 -290 -230
-230 -378 -521 -431 -845 -14 -89 -16 -347 -4 -440 61 -452 324 -856 716
-1101 146 -91 360 -174 510 -199 19 -3 46 -7 60 -10 75 -14 105 -16 210 -17
201 -1 331 19 510 78 297 99 548 278 734 526 l57 76 -20 40 c-54 106 -183 155
-304 117 -76 -24 -114 -58 -205 -188 -237 -335 -481 -512 -721 -521 -540 -21
-1019 481 -1115 1169 -14 99 -15 411 -1 465 3 14 8 39 10 55 3 17 9 43 13 60
l8 30 1110 0 c610 0 1114 4 1120 8 8 5 9 19 4 44 -5 21 -11 57 -14 81 -13 99
-66 263 -118 367 -195 389 -577 640 -1001 657 -48 2 -89 3 -90 2z m263 -163
c132 -45 240 -125 329 -245 109 -146 179 -342 206 -573 l6 -53 -891 0 -891 0
6 23 c15 52 69 186 97 242 89 175 267 381 414 478 109 71 242 126 361 147 88
16 290 5 363 -19z"/>
<path d="M4285 1433 c-54 -11 -138 -72 -163 -118 -65 -120 -40 -256 61 -335
128 -101 323 -51 390 99 24 54 25 151 3 204 -20 47 -87 114 -132 133 -35 15
-123 24 -159 17z"/>
</g>
</svg>
